/* XPM */
static char *pt_xpm[] = {
"15 15 256 2",
"AA	c #000000",
"BA	c #FFFFFF",
"  	c None",
"DA	c #000000",
"EA	c #000000",
"FA	c #000000",
"GA	c #000000",
"HA	c #000000",
"IA	c #000000",
"JA	c #000000",
"KA	c #000000",
"LA	c #000000",
"MA	c #000000",
"NA	c #000000",
"OA	c #000000",
"PA	c #000000",
"QA	c #000000",
"RA	c #000000",
"SA	c #000000",
"TA	c #000000",
"UA	c #000000",
"VA	c #000000",
"WA	c #000000",
"XA	c #000000",
"YA	c #000000",
"ZA	c #000000",
"aA	c #000000",
"bA	c #000000",
"cA	c #000000",
"dA	c #000000",
"eA	c #000000",
"fA	c #000000",
"gA	c #000000",
"hA	c #000000",
"iA	c #000000",
"jA	c #000000",
"kA	c #000000",
"lA	c #000000",
"mA	c #000000",
"nA	c #000000",
"oA	c #000000",
"pA	c #000000",
"qA	c #000000",
"rA	c #000000",
"sA	c #000000",
"tA	c #000000",
"uA	c #000000",
"vA	c #000000",
"wA	c #000000",
"xA	c #000000",
"yA	c #000000",
"zA	c #000000",
"0A	c #000000",
"1A	c #000000",
"2A	c #000000",
"3A	c #000000",
"4A	c #000000",
"5A	c #000000",
"6A	c #000000",
"7A	c #000000",
"8A	c #000000",
"9A	c #000000",
"+A	c #000000",
"/A	c #000000",
"AB	c #000000",
"BB	c #000000",
"CB	c #000000",
"DB	c #000000",
"EB	c #000000",
"FB	c #000000",
"GB	c #000000",
"HB	c #000000",
"IB	c #000000",
"JB	c #000000",
"KB	c #000000",
"LB	c #000000",
"MB	c #000000",
"NB	c #000000",
"OB	c #000000",
"PB	c #000000",
"QB	c #000000",
"RB	c #000000",
"SB	c #000000",
"TB	c #000000",
"UB	c #000000",
"VB	c #000000",
"WB	c #000000",
"XB	c #000000",
"YB	c #000000",
"ZB	c #000000",
"aB	c #000000",
"bB	c #000000",
"cB	c #000000",
"dB	c #000000",
"eB	c #000000",
"fB	c #000000",
"gB	c #000000",
"hB	c #000000",
"iB	c #000000",
"jB	c #000000",
"kB	c #000000",
"lB	c #000000",
"mB	c #000000",
"nB	c #000000",
"oB	c #000000",
"pB	c #000000",
"qB	c #000000",
"rB	c #000000",
"sB	c #000000",
"tB	c #000000",
"uB	c #000000",
"vB	c #000000",
"wB	c #000000",
"xB	c #000000",
"yB	c #000000",
"zB	c #000000",
"0B	c #000000",
"1B	c #000000",
"2B	c #000000",
"3B	c #000000",
"4B	c #000000",
"5B	c #000000",
"6B	c #000000",
"7B	c #000000",
"8B	c #000000",
"9B	c #000000",
"+B	c #000000",
"/B	c #000000",
"AC	c #000000",
"BC	c #000000",
"CC	c #000000",
"DC	c #000000",
"EC	c #000000",
"FC	c #000000",
"GC	c #000000",
"HC	c #000000",
"IC	c #000000",
"JC	c #000000",
"KC	c #000000",
"LC	c #000000",
"MC	c #000000",
"NC	c #000000",
"OC	c #000000",
"PC	c #000000",
"QC	c #000000",
"RC	c #000000",
"SC	c #000000",
"TC	c #000000",
"UC	c #000000",
"VC	c #000000",
"WC	c #000000",
"XC	c #000000",
"YC	c #000000",
"ZC	c #000000",
"aC	c #000000",
"bC	c #000000",
"cC	c #000000",
"dC	c #000000",
"eC	c #000000",
"fC	c #000000",
"gC	c #000000",
"hC	c #000000",
"iC	c #000000",
"jC	c #000000",
"kC	c #000000",
"lC	c #000000",
"mC	c #000000",
"nC	c #000000",
"oC	c #000000",
"pC	c #000000",
"qC	c #000000",
"rC	c #000000",
"sC	c #000000",
"tC	c #000000",
"uC	c #000000",
"vC	c #000000",
"wC	c #000000",
"xC	c #000000",
"yC	c #000000",
"zC	c #000000",
"0C	c #000000",
"1C	c #000000",
"2C	c #000000",
"3C	c #000000",
"4C	c #000000",
"5C	c #000000",
"6C	c #000000",
"7C	c #000000",
"8C	c #000000",
"9C	c #000000",
"+C	c #000000",
"/C	c #000000",
"AD	c #000000",
"BD	c #000000",
"CD	c #000000",
"DD	c #000000",
"ED	c #000000",
"FD	c #000000",
"GD	c #000000",
"HD	c #000000",
"ID	c #000000",
"JD	c #000000",
"KD	c #000000",
"LD	c #000000",
"MD	c #000000",
"ND	c #000000",
"OD	c #000000",
"PD	c #000000",
"QD	c #000000",
"RD	c #000000",
"SD	c #000000",
"TD	c #000000",
"UD	c #000000",
"VD	c #000000",
"WD	c #000000",
"XD	c #000000",
"YD	c #000000",
"ZD	c #000000",
"aD	c #000000",
"bD	c #000000",
"cD	c #000000",
"dD	c #000000",
"eD	c #000000",
"fD	c #000000",
"gD	c #000000",
"hD	c #000000",
"iD	c #000000",
"jD	c #000000",
"kD	c #000000",
"lD	c #000000",
"mD	c #000000",
"nD	c #000000",
"oD	c #000000",
"pD	c #000000",
"qD	c #000000",
"rD	c #000000",
"sD	c #000000",
"tD	c #000000",
"uD	c #000000",
"vD	c #000000",
"wD	c #000000",
"xD	c #000000",
"yD	c #000000",
"zD	c #000000",
"0D	c #000000",
"1D	c #000000",
"2D	c #000000",
"3D	c #000000",
"4D	c #000000",
"5D	c #000000",
"6D	c #000000",
"7D	c #000000",
"8D	c #000000",
"9D	c #000000",
"+D	c #000000",
"/D	c #000000",
"AAAAAAAAAAAAAAAAAAAAAAAAAAAAAA",
"AAAAAABAAAAAAAAAAAAAAAAAAAAAAA",
"AAAAAABAAAAAAAAAAAAAAAAAAAAAAA",
"AAAABABABABAAAAAAAAABAAAAAAAAA",
"AAAABABAAABABAAAAAAABAAAAAAAAA",
"AAAABABAAAAABAAAAAAABAAAAAAAAA",
"AAAABABABABABAAAAABABABABABAAA",
"AAAABAAAAAAAAAAABABABAAAAAAAAA",
"AAAABAAAAAAAAAAAAAAABAAAAAAAAA",
"AAAABAAAAAAAAAAAAAAABAAAAAAAAA",
"AAAABAAAAAAAAAAAAAAABAAAAAAAAA",
"AAAABAAAAAAAAAAAAABABAAABABAAA",
"AAAAAAAAAAAAAAAAAAAABABAAAAAAA",
"AAAAAAAAAAAAAAAAAAAAAAAAAAAAAA",
"AAAAAAAAAAAAAAAAAAAAAAAAAAAAAA"
};
